<svg width="15" height="17" viewBox="0 0 15 17" fill="none" xmlns="http://www.w3.org/2000/svg">
<path d="M4.16667 0.571045C1.86583 0.571045 0 2.50412 0 4.88788V11.7948C0 14.1786 1.86583 16.1117 4.16667 16.1117H10.8333C13.1342 16.1117 15 14.1786 15 11.7948V4.88788C15 2.50412 13.1342 0.571045 10.8333 0.571045H4.16667ZM12.5 2.29778C12.96 2.29778 13.3333 2.68457 13.3333 3.16115C13.3333 3.63772 12.96 4.02451 12.5 4.02451C12.04 4.02451 11.6667 3.63772 11.6667 3.16115C11.6667 2.68457 12.04 2.29778 12.5 2.29778ZM7.5 4.02451C9.80083 4.02451 11.6667 5.95759 11.6667 8.34135C11.6667 10.7251 9.80083 12.6582 7.5 12.6582C5.19917 12.6582 3.33333 10.7251 3.33333 8.34135C3.33333 5.95759 5.19917 4.02451 7.5 4.02451ZM7.5 5.75125C6.83696 5.75125 6.20107 6.02413 5.73223 6.50987C5.26339 6.99561 5 7.65441 5 8.34135C5 9.02829 5.26339 9.68709 5.73223 10.1728C6.20107 10.6586 6.83696 10.9314 7.5 10.9314C8.16304 10.9314 8.79893 10.6586 9.26777 10.1728C9.73661 9.68709 10 9.02829 10 8.34135C10 7.65441 9.73661 6.99561 9.26777 6.50987C8.79893 6.02413 8.16304 5.75125 7.5 5.75125Z" fill="white"/>
</svg>
