<svg width="410" height="365" viewBox="0 0 410 365" fill="none" xmlns="http://www.w3.org/2000/svg">
<g clip-path="url(#clip0_112_389)">
<path d="M207.165 365C291.054 365 359.059 354.737 359.059 342.077C359.059 329.417 291.054 319.155 207.165 319.155C123.276 319.155 55.2711 329.417 55.2711 342.077C55.2711 354.737 123.276 365 207.165 365Z" fill="#3F3D56"/>
<path d="M80.5781 126.165C80.5781 92.7704 137.969 65.6985 208.763 65.6985C279.558 65.6985 336.948 92.7704 336.948 126.165" stroke="#3F3D56" stroke-width="2" stroke-miterlimit="10"/>
<path d="M249.069 88.9801H144.783C124.157 59.3201 124.157 29.66 144.783 0H249.069C220.228 29.66 220.228 59.3201 249.069 88.9801Z" fill="#E6E6E6"/>
<path d="M218.445 10.5929H159.681V16.9486H218.445V10.5929Z" fill="#FA7807"/>
<path d="M218.445 31.4255H140.645V33.5441H218.445V31.4255Z" fill="white"/>
<path d="M218.445 42.3715H140.645V44.49H218.445V42.3715Z" fill="white"/>
<path d="M218.445 53.3174H140.645V55.436H218.445V53.3174Z" fill="white"/>
<path d="M290.705 285.943C290.705 314.163 311.454 336.998 337.095 336.998L290.705 285.943Z" fill="#3F3D56"/>
<path d="M337.095 336.998C337.095 308.461 360.249 285.369 388.864 285.369L337.095 336.998Z" fill="#FA7807"/>
<path d="M307.513 288.501C307.513 315.307 320.744 336.998 337.095 336.998L307.513 288.501Z" fill="#FA7807"/>
<path d="M337.095 336.998C337.095 300.534 363.858 271.028 396.931 271.028L337.095 336.998Z" fill="#3F3D56"/>
<path d="M327.336 337.358C327.336 337.358 333.914 337.185 335.897 335.98C337.88 334.775 346.017 333.337 346.509 335.269C347.001 337.201 356.396 344.878 348.968 344.929C341.541 344.98 331.71 343.942 329.731 342.913C327.752 341.885 327.336 337.358 327.336 337.358Z" fill="#A8A8A8"/>
<path opacity="0.2" d="M349.101 344.256C341.673 344.307 331.843 343.269 329.864 342.241C328.357 341.457 327.756 338.647 327.555 337.35C327.416 337.355 327.336 337.358 327.336 337.358C327.336 337.358 327.752 341.885 329.731 342.913C331.71 343.942 341.541 344.98 348.968 344.929C351.112 344.914 351.853 344.263 351.812 343.299C351.514 343.882 350.697 344.245 349.101 344.256Z" fill="black"/>
<path d="M184.871 69.5094C185.475 69.7457 186.202 69.3935 186.558 68.9149C187.914 67.0923 185.418 64.7422 185.958 62.6334C186.391 60.944 188.641 59.9412 189.101 58.257C189.548 56.6204 188.171 54.7758 189.102 53.295C189.831 52.1349 191.653 51.8296 193.177 52.0328C194.702 52.2361 196.149 52.8079 197.689 52.888C199.741 52.9947 201.697 52.2239 203.704 51.842C205.711 51.4601 208.158 51.6096 209.339 53.0459C210.855 54.8901 209.317 57.458 209.845 59.665C210.264 61.4176 211.983 62.8687 212.02 64.657C212.033 65.2927 210.075 64.7806 210.179 65.4101C210.283 66.0396 209.358 65.4853 210.097 65.4105C210.4 65.3474 210.67 65.2039 210.871 65.0007C211.071 64.7975 211.19 64.5453 211.211 64.2805C211.299 63.7562 212.454 63.5814 212.44 63.0519C212.409 61.8109 215.039 62.6476 215.472 61.4626C216.468 58.7001 216.263 55.7238 214.896 53.0794C214.307 51.9504 213.503 50.882 213.219 49.67C212.833 48.0245 213.44 46.2581 212.803 44.6704C211.945 42.5308 209.103 41.4401 206.465 41.2185C203.828 40.997 201.147 41.3935 198.524 41.0669C196.175 40.7743 193.9 39.9054 191.53 40.0313C188.686 40.1824 186.212 41.7457 184.241 43.5009C182.27 45.2562 180.597 47.2751 178.359 48.7788C177.673 49.1812 177.041 49.6457 176.473 50.1642C175.332 51.3498 175.217 53.0387 175.534 54.5483C175.851 56.0579 176.541 57.4979 176.833 59.0112C177.107 60.4335 177.022 61.8865 177.14 63.3242C177.258 64.762 177.608 66.2434 178.623 67.3955C179.029 67.8662 179.556 68.2515 180.163 68.5222C180.77 68.7929 181.442 68.9418 182.127 68.9575C182.601 68.9669 183.002 68.6031 183.481 68.6979C184.08 68.8165 184.34 69.3016 184.871 69.5094Z" fill="#2F2E41"/>
<path d="M164.576 173.995L166.334 183.214L169.852 179.14L167.842 172.923L164.576 173.995Z" fill="#A0616A"/>
<path d="M166.837 104.321L164.068 110.548C164.068 110.548 161.309 142.266 161.309 144.625C161.309 146.983 163.319 177.211 164.073 178.497C164.073 178.497 167.34 174.424 171.611 175.067C175.882 175.71 174.124 164.348 174.124 164.348L178.144 136.264L177.39 122.114L166.837 104.321Z" fill="#575A89"/>
<path opacity="0.1" d="M166.837 104.321L164.068 110.548C164.068 110.548 161.309 142.266 161.309 144.625C161.309 146.983 163.319 177.211 164.073 178.497C164.073 178.497 167.34 174.424 171.611 175.067C175.882 175.71 174.124 164.348 174.124 164.348L178.144 136.264L177.39 122.114L166.837 104.321Z" fill="black"/>
<path d="M183.922 70.0194C183.922 70.0194 192.214 88.0275 187.44 91.4576C182.666 94.8878 214.074 85.6693 214.074 85.6693L213.32 83.3111C213.32 83.3111 203.018 79.881 208.043 70.0194C213.068 60.1577 183.922 70.0194 183.922 70.0194Z" fill="#A0616A"/>
<path opacity="0.1" d="M183.922 70.0194C183.922 70.0194 192.214 88.0275 187.44 91.4576C182.666 94.8878 214.074 85.6693 214.074 85.6693L213.32 83.3111C213.32 83.3111 203.018 79.881 208.043 70.0194C213.068 60.1577 183.922 70.0194 183.922 70.0194Z" fill="black"/>
<path d="M170.857 310.557C170.857 310.557 167.339 309.7 165.329 311.843C163.319 313.987 155.782 319.347 155.782 319.347C155.782 319.347 141.209 318.06 139.198 324.278C137.188 330.495 162.063 330.495 168.093 328.994C174.123 327.493 175.38 328.994 175.38 328.994C175.38 328.994 193.973 330.28 193.973 327.708C193.973 325.135 192.214 316.345 192.214 316.345L170.857 310.557Z" fill="#575A89"/>
<path d="M229.903 324.921L226.636 333.496C226.636 333.496 216.837 345.073 222.365 347.431C227.893 349.789 247.491 352.147 247.491 345.93V334.139C247.491 334.139 245.481 325.778 243.471 324.921C241.461 324.063 229.903 324.921 229.903 324.921Z" fill="#575A89"/>
<path d="M174.415 170.858C174.415 170.858 163.822 178.712 164.073 179.783C164.324 180.855 169.35 249.672 169.35 249.672L172.113 294.264C172.113 294.264 168.596 304.769 170.355 307.127C172.113 309.485 167.842 310.128 167.842 310.128C167.842 310.128 185.933 324.063 193.47 318.06L200.506 240.239L219.853 296.837C219.853 296.837 223.119 326.85 226.888 326.85C230.657 326.85 245.983 327.493 245.732 325.778C245.481 324.063 246.486 310.986 244.727 303.268C242.968 295.55 231.159 234.451 231.159 234.451C231.159 234.451 230.144 182.072 232.787 177.176C235.431 172.28 231.41 167.135 231.41 167.135L213.822 161.346L192.717 163.49L174.415 170.858Z" fill="#2F2E41"/>
<path d="M195.732 77.3084C205.445 77.3084 213.32 70.5896 213.32 62.3015C213.32 54.0135 205.445 47.2947 195.732 47.2947C186.018 47.2947 178.144 54.0135 178.144 62.3015C178.144 70.5896 186.018 77.3084 195.732 77.3084Z" fill="#A0616A"/>
<path d="M238.446 94.6734C237.577 92.5759 236.112 90.6948 234.183 89.1983C232.254 87.7019 229.92 86.6367 227.39 86.0981C222.322 85.0103 217.365 83.5765 212.566 81.8104C212.566 81.8104 194.727 89.0994 191.209 89.0994C187.691 89.0994 187.691 87.17 187.691 87.17C187.691 87.17 178.646 95.3166 173.872 96.1741C169.098 97.0316 162.063 107.108 164.576 112.682C166.282 116.255 168.753 119.526 171.862 122.329C171.862 122.329 170.857 152.342 174.123 157.916C174.123 157.916 166.083 170.994 173.621 171.851C181.159 172.709 210.053 169.707 215.079 172.709C220.104 175.71 229.4 172.066 230.657 176.139C231.913 180.212 234.677 181.07 234.677 181.07C234.677 181.07 238.948 175.281 236.436 171.851C233.923 168.421 238.446 94.6734 238.446 94.6734Z" fill="#575A89"/>
<path d="M219.853 175.281L215.832 177.425C215.832 177.425 220.104 190.074 221.863 190.503C223.621 190.931 227.761 179.687 227.761 179.687L219.853 175.281Z" fill="#A0616A"/>
<path d="M181.856 68.0087C182.46 68.245 183.187 67.8928 183.543 67.4142C184.898 65.5916 182.402 63.2416 182.943 61.1328C183.376 59.4433 185.626 58.4406 186.086 56.7563C186.533 55.1198 185.156 53.2751 186.087 51.7943C186.816 50.6342 188.638 50.3289 190.162 50.5322C191.687 50.7354 193.134 51.3072 194.674 51.3873C196.726 51.4941 198.682 50.7232 200.689 50.3413C202.695 49.9594 205.143 50.109 206.324 51.5452C207.839 53.3894 206.302 55.9574 206.83 58.1644C207.249 59.9169 212.024 61.147 212.457 59.9619C213.453 57.1994 213.248 54.2231 211.881 51.5787C211.291 50.4497 210.488 49.3813 210.204 48.1693C209.817 46.5239 210.425 44.7574 209.788 43.1697C208.929 41.0301 206.088 39.9394 203.45 39.7179C200.813 39.4963 198.132 39.8929 195.509 39.5662C193.16 39.2736 190.885 38.4047 188.515 38.5306C185.671 38.6817 183.197 40.245 181.226 42.0003C179.254 43.7556 177.582 45.7744 175.344 47.2781C174.658 47.6805 174.026 48.145 173.458 48.6635C172.317 49.8491 172.202 51.538 172.519 53.0476C172.836 54.5572 173.526 55.9972 173.818 57.5106C174.092 58.9328 174.007 60.3858 174.125 61.8236C174.243 63.2613 174.593 64.7427 175.608 65.8948C176.014 66.3655 176.541 66.7508 177.148 67.0215C177.755 67.2922 178.427 67.4411 179.112 67.4569C179.586 67.4662 179.987 67.1024 180.466 67.1973C181.065 67.3158 181.325 67.8009 181.856 68.0087Z" fill="#2F2E41"/>
<path opacity="0.1" d="M228.521 98.4251L236.687 94.6734C236.687 94.6734 256.536 134.977 251.762 146.125C246.988 157.273 228.647 180.212 228.647 180.212C228.647 180.212 214.074 177.64 215.581 175.067C217.089 172.494 226.888 155.987 227.641 153.843C228.395 151.699 233.42 137.764 231.159 136.264C228.898 134.763 224.501 99.9258 224.501 99.9258L228.521 98.4251Z" fill="black"/>
<path d="M228.395 92.3152L238.446 94.6734C238.446 94.6734 258.295 134.977 253.521 146.125C248.747 157.273 230.405 180.212 230.405 180.212C230.405 180.212 215.832 177.64 217.34 175.067C218.847 172.494 228.646 155.987 229.4 153.843C230.154 151.699 235.179 137.764 232.918 136.264C230.657 134.763 219.852 97.6748 219.852 97.6748L228.395 92.3152Z" fill="#575A89"/>
<path d="M336.948 126.165C336.948 161.178 279.558 189.561 208.763 189.561C137.969 189.561 80.5781 161.178 80.5781 126.165" stroke="#3F3D56" stroke-width="2" stroke-miterlimit="10"/>
<path d="M313.632 190.46C284.979 203.646 247.593 211.625 206.696 211.625C167.484 211.625 131.499 204.29 103.346 192.064" stroke="#3F3D56" stroke-width="2" stroke-miterlimit="10"/>
<path d="M272.778 49.3304C327.307 61.5593 366.142 88.4584 369.753 120.14" stroke="#3F3D56" stroke-width="2" stroke-miterlimit="10"/>
<path d="M51.2323 99.5476C60.4201 85.1391 77.2047 72.4591 99.1959 62.7176" stroke="#3F3D56" stroke-width="2" stroke-miterlimit="10"/>
<path d="M163.962 253.784H268.247C288.873 224.124 288.873 194.464 268.247 164.804H163.962C192.802 194.464 192.802 224.124 163.962 253.784Z" fill="#F2F2F2"/>
<path d="M257.232 181.752H198.468V188.108H257.232V181.752Z" fill="#FA7807"/>
<path d="M271.716 200.819H193.915V202.938H271.716V200.819Z" fill="white"/>
<path d="M271.716 211.765H193.915V213.884H271.716V211.765Z" fill="white"/>
<path d="M119.755 193.388H15.4696C-5.15654 163.728 -5.15654 134.068 15.4696 104.408H119.755C90.9149 134.068 90.9149 163.728 119.755 193.388Z" fill="#F2F2F2"/>
<path d="M85.8209 115.001H27.0569V121.357H85.8209V115.001Z" fill="#FA7807"/>
<path d="M92.0284 132.656H14.2281V134.774H92.0284V132.656Z" fill="white"/>
<path d="M92.0284 143.602H14.2281V145.72H92.0284V143.602Z" fill="white"/>
<path d="M92.0284 154.548H14.2281V156.666H92.0284V154.548Z" fill="white"/>
<path d="M92.0284 165.494H14.2281V167.612H92.0284V165.494Z" fill="white"/>
<path d="M290.245 152.401H394.53C415.157 122.741 415.157 93.0807 394.53 63.4207H290.245C319.085 93.0807 319.085 122.741 290.245 152.401Z" fill="#F2F2F2"/>
<path d="M382.273 72.2481H323.509V78.6038H382.273V72.2481Z" fill="#FA7807"/>
<path d="M395.102 89.9029H317.302V92.0215H395.102V89.9029Z" fill="white"/>
</g>
<defs>
<clipPath id="clip0_112_389">
<rect width="410" height="365" fill="white"/>
</clipPath>
</defs>
</svg>
